<svg xmlns="http://www.w3.org/2000/svg" version="1.1" xmlns:xlink="http://www.w3.org/1999/xlink" viewBox="0 0 1.5718252897859157 2.057272380537778"><g transform="matrix(0.8571428571428572,0,0,0.8571428571428572,0.7859126448929579,1.9587654040860856)"><g transform="matrix(1,0,0,1,0,0)"><path d=" M -0.27892096036883796 -1.3516661624948179 Q -0.1705688604213459 -1.3900276972543961 -0.21750458291465605 -1.5294856158823773 L -0.3479338010972216 -1.8978827557038502 Q -0.3571405694395204 -1.9238872596912486 -0.3373882261880009 -1.9369771716405388 Q -0.3312707155387472 -1.9403623847255882 -0.3255368202370892 -1.9448311188101128 Q -0.300615837249166 -1.9536542718048158 -0.28395907199716763 -1.9376034319426294 Q -0.27840681691316826 -1.932253151988567 -0.27533789413240195 -1.9235849839927677 L -0.14260698386426168 -1.5486867181744453 Q -0.10884883327583295 -1.4533368702206522 -0.148245524911002 -1.3820797698227545 Q -0.17910869863699658 -1.3211599488976642 -0.2582057315986658 -1.2931560285231722 Q -0.3405533275587597 -1.264001262105893 -0.4118777529999698 -1.3070321320870826 Q -0.43580287494400927 -1.322948321862644 -0.4479000860026538 -1.338174773442466 Q -0.4599972970612984 -1.353401225022288 -0.46383345053725616 -1.3642364350170373 Q -0.467669604013214 -1.3750716450117864 -0.4613367906246455 -1.3864587829624124 Q -0.45500397723607705 -1.3978459209130385 -0.44525228824080276 -1.4012984590414006 Q -0.4257489102502542 -1.4082035352981246 -0.4102429910410432 -1.3954032584343627 Q -0.35476743033208236 -1.3248130881631133 -0.27892096036883796 -1.3516661624948179 M 0.21068043218718593 -1.3758263900780492 Q 0.31903253213467797 -1.337464855318471 0.3703023386258878 -1.4753883125560692 L 0.5007315568084534 -1.843785452377542 Q 0.5099383251507521 -1.8697899563649405 0.5335268218782294 -1.8675352544103994 Q 0.5404115632226747 -1.8663170833242995 0.5476799199147158 -1.8661824332376746 Q 0.572600902902639 -1.8573592802429717 0.5754475156411892 -1.8344033641240611 Q 0.5763963865540392 -1.8267513920844243 0.573327463773273 -1.8180832240886249 L 0.4405965535051327 -1.4431849582703025 Q 0.40683840291670403 -1.3478351103165094 0.3313818686075315 -1.3172412367637645 Q 0.2690622363786829 -1.2893123357319114 0.18996520341701373 -1.3173162561064033 Q 0.10761760745691977 -1.346471022523683 0.07925810094643718 -1.4247945044836843 Q 0.07067759290622899 -1.4522191546871195 0.07085607297064943 -1.4716653750904949 Q 0.07103455303506986 -1.4911115954938705 0.07487070651102767 -1.5019468054886196 Q 0.07870685998698548 -1.5127820154833689 0.09079390358949067 -1.5176476925248665 Q 0.10288094719199585 -1.5225133695663644 0.11263263618727014 -1.5190608314380023 Q 0.13213601417781873 -1.5121557551812783 0.13613347295915626 -1.4924504020607925 Q 0.13483396222394148 -1.4026794644097538 0.21068043218718593 -1.3758263900780492" fill="#404040" fill-rule="nonzero"></path></g><g transform="matrix(1,0,0,1,0,0)"><g transform="matrix(1,0,0,1,0,0)" clip-path="url(#SvgjsClipPath4260)"><g clip-path="url(#SvgjsClipPath42581a666f01-bf4d-48d3-81a5-347a6651d2f7)"><path d=" M 0.477711484130057 -1.157114121010214 L 0.305629956542441 -1.157114121010214 L 0.2848740155961545 -1.1363581800639275 L 0.09806205446871313 -1.1363581800639275 L 0.07547170957627353 -1.1137678351714877 L -0.14550602504826726 -1.1137678351714877 L -0.14541685263421816 -1.044060485217674 L 0.09832107909999871 -0.8003267997888881 C 0.11256318751526989 -0.786084691373617 0.12055898064167275 -0.7667724942738396 0.12055898064167275 -0.7466365139204659 L 0.12055898064167275 -0.6851372723646005 L 0.25544711895995026 -0.6851372723646005 L 0.25544711895995026 -0.8200254106828782 L 0.1939478774040851 -0.8200254106828782 C 0.17381189705071126 -0.8200254106828782 0.15449545364550304 -0.8280254501147121 0.1402575915356628 -0.8422633122245522 L -0.060083098694656945 -1.042604002454872 L 0.3737746660976799 -1.042604002454872 L 0.3737746660976799 -0.33697419747345225 L -0.2878251978706369 -0.9985740614417694 C -0.30206730628590794 -1.0128161698570406 -0.31006309941231097 -1.032128366956818 -0.31006309941231097 -1.0522643473101916 L -0.31006309941231097 -1.1137635888660569 L -0.4449554840360195 -1.1137635888660569 L -0.4449554840360195 -0.9788754505477792 L -0.38345199617472336 -0.9788754505477792 C -0.36331601582134954 -0.9788754505477792 -0.3439995724161413 -0.9708754111159454 -0.3297617103063011 -0.9566375490061052 L 0.3318381536620158 -0.29503768503778816 L -0.3737874050139729 -0.29503768503778816 L -0.3737874050139729 -0.7288954498301252 L -0.16948066551118351 -0.5245887103273357 C -0.15524280340134328 -0.5103466019120645 -0.14724276396950947 -0.4910344048122872 -0.14724276396950947 -0.4708984244589134 L -0.14724276396950947 -0.4093991829030481 L -0.01235462565123191 -0.4093991829030481 L -0.01235462565123191 -0.5442873212213257 L -0.07385386720709708 -0.5442873212213257 C -0.0939940938659018 -0.5442873212213257 -0.11330629096567912 -0.5522873606531595 -0.12754415307551942 -0.5665252227629998 L -0.3737916513194039 -0.8127727210068844 L -0.44495123773058864 -0.8131379032739425 L -0.44495123773058864 -0.5307161290641383 L -0.4777072378246261 -0.4979601289701009 L -0.4777072378246261 -0.18749999999999978 L -0.30562571023701046 -0.18749999999999978 L -0.28486976929072383 -0.20825594094628652 L -0.09805780816328252 -0.20825594094628652 L -0.08244414309382747 -0.22386960601574146 L 0.4449469914251573 -0.22386960601574146 L 0.4449469914251573 -0.8138852530297829 L 0.4777157304354878 -0.846653992040113 L 0.4777157304354878 -1.157114121010214 Z" fill="#4e888f" transform="matrix(1,0,0,1,0,0)" fill-rule="nonzero"></path></g></g></g></g><defs><clipPath id="SvgjsClipPath4260"><path d=" M -0.477711484130057 -1.157114121010214 h 0.955422968260114 v 0.969614121010214 h -0.955422968260114 Z"></path></clipPath><clipPath id="SvgjsClipPath42581a666f01-bf4d-48d3-81a5-347a6651d2f7"><path d=" M -0.4777114841300569 -1.157114121010214 L 0.477711484130057 -1.157114121010214 L 0.477711484130057 -0.1875 L -0.4777114841300568 -0.1875 Z"></path></clipPath></defs></svg>